<?xml version="1.0" standalone="no"?>
<!DOCTYPE svg PUBLIC "-//W3C//DTD SVG 20010904//EN"
 "http://www.w3.org/TR/2001/REC-SVG-20010904/DTD/svg10.dtd">
<svg version="1.0" xmlns="http://www.w3.org/2000/svg"
 width="55" height="55" viewBox="0 0 417.000000 417.000000"
 preserveAspectRatio="xMidYMid meet">

<g transform="translate(0.000000,417.000000) scale(0.100000,-0.100000)"
fill="#FD3D0D" stroke="none">
<path d="M2363 3692 l-123 -3 0 -99 0 -100 -160 0 c-119 0 -162 -3 -165 -12
-3 -7 -6 -250 -7 -541 -3 -499 -2 -528 15 -533 16 -5 17 -16 15 -92 l-3 -87
-212 4 -212 4 -11 -27 c-5 -15 -10 -63 -10 -106 l0 -78 -40 -7 c-21 -4 -56 -6
-77 -5 -86 4 -78 24 -78 -194 0 -107 -4 -198 -8 -203 -5 -4 -88 -8 -185 -8
l-177 0 -3 103 -3 102 -84 0 -85 0 -2 208 -3 207 -175 0 -175 0 0 -430 0 -430
25 -1 c14 -1 69 -2 123 -3 l97 -1 0 -90 c0 -110 0 -110 144 -110 l105 0 3 -97
3 -98 95 -8 c52 -4 142 -6 199 -4 l104 4 -7 -202 c-7 -184 -6 -203 10 -216 25
-21 600 -27 628 -6 19 14 20 26 17 212 -2 156 0 200 11 206 7 5 78 9 157 9
l143 0 -7 -176 c-9 -212 -9 -195 -6 -219 3 -41 38 -45 355 -45 166 0 306 4
312 8 15 9 17 41 15 260 l-1 182 -110 0 -110 0 0 95 0 94 37 7 c21 4 162 4
314 1 152 -3 286 -3 298 0 21 5 21 9 21 219 l0 214 -22 1 c-13 0 -62 0 -110
-1 l-88 -1 0 105 0 106 -109 0 c-104 0 -109 1 -115 23 -8 30 -8 428 0 506 l7
61 332 0 c266 0 335 3 344 13 7 10 10 85 7 248 -3 129 -5 321 -5 427 l-1 192
-120 0 -120 0 0 105 0 105 -219 0 c-253 0 -232 -10 -229 111 1 41 -2 80 -6 87
-7 11 -181 13 -553 4z m330 -429 c3 -5 2 -54 -1 -111 l-5 -103 -106 3 -106 3
-3 94 c-1 52 -1 100 2 108 4 10 32 13 110 13 58 0 107 -3 109 -7z m677 -538
l0 -105 -337 2 -338 3 -3 89 c-2 49 -1 95 2 103 4 10 71 13 341 13 l335 0 0
-105z"/>
</g>
</svg>
